<svg width="296" height="353" viewBox="0 0 296 353" fill="none" xmlns="http://www.w3.org/2000/svg">
<path d="M295.092 344.5C295.092 346.667 294.092 347.75 292.092 347.75C285.925 347.75 279.842 347.583 273.842 347.25C267.842 346.917 261.842 346.75 255.842 346.75C253.008 346.75 250.175 346.833 247.342 347C244.508 347 241.675 347.083 238.842 347.25C236.008 347.417 233.175 347.667 230.342 348C227.675 348.167 224.925 348.25 222.092 348.25C220.592 348.25 219.592 347.833 219.092 347C218.758 346 218.592 344.917 218.592 343.75C218.592 343.083 218.758 342.417 219.092 341.75C219.425 340.917 220.008 340.5 220.842 340.5C221.342 340.333 222.092 340.25 223.092 340.25C224.258 340.25 225.425 340.333 226.592 340.5C227.925 340.5 229.175 340.5 230.342 340.5C232.675 340.5 235.258 340.25 238.092 339.75C241.092 339.25 242.758 337.417 243.092 334.25C243.258 333.75 243.258 333.25 243.092 332.75C243.092 332.25 243.092 331.75 243.092 331.25V178H241.592C235.258 195.167 228.675 212.25 221.842 229.25C215.008 246.083 208.175 262.917 201.342 279.75C198.675 286.583 195.925 293.417 193.092 300.25C190.258 307.083 187.425 313.917 184.592 320.75C183.425 323.75 182.258 326.833 181.092 330C180.092 333.167 178.842 336.167 177.342 339C176.175 340.833 174.342 341.75 171.842 341.75C169.508 341.75 167.758 340.833 166.592 339C165.258 336.5 164.008 333.833 162.842 331C161.842 328.167 160.758 325.417 159.592 322.75C157.092 316.917 154.675 311.167 152.342 305.5C150.008 299.833 147.675 294.167 145.342 288.5C137.675 270.167 130.008 251.917 122.342 233.75C114.842 215.417 107.342 197.167 99.8418 179C99.8418 204.833 99.8418 230.75 99.8418 256.75C100.008 282.583 100.092 308.417 100.092 334.25C100.092 337.583 101.508 339.5 104.342 340C107.342 340.5 110.092 340.75 112.592 340.75C114.258 340.75 115.925 340.667 117.592 340.5C119.258 340.333 120.925 340.25 122.592 340.25C123.425 340.25 123.842 340.75 123.842 341.75C123.842 342.583 123.758 343.75 123.592 345.25C123.425 346.75 122.758 347.5 121.592 347.5C117.092 347.5 112.508 347.417 107.842 347.25C103.342 346.917 98.8418 346.75 94.3418 346.75C90.0085 346.75 85.5918 346.917 81.0918 347.25C76.7585 347.417 72.4251 347.5 68.0918 347.5C67.9251 347.167 67.7585 346.917 67.5918 346.75C67.5918 346.417 67.5085 346.167 67.3418 346V343.75C67.3418 342.083 67.6751 341.167 68.3418 341C69.0085 340.833 69.9251 340.75 71.0918 340.75C72.4251 340.75 73.6751 340.833 74.8418 341C76.0085 341 77.1751 341 78.3418 341C80.8418 341 83.5085 340.667 86.3418 340C89.1751 339.333 90.6751 337.417 90.8418 334.25C91.1751 331.583 91.2585 328.917 91.0918 326.25C91.0918 323.417 91.0918 320.667 91.0918 318C91.0918 312.667 91.0085 307.333 90.8418 302C90.8418 296.5 90.8418 291.083 90.8418 285.75C90.8418 267.917 90.9251 250.167 91.0918 232.5C91.4251 214.833 91.5918 197.167 91.5918 179.5C91.5918 176.333 90.0918 174.25 87.0918 173.25C84.0918 172.25 81.3418 171.75 78.8418 171.75C77.3418 171.75 75.8418 171.833 74.3418 172C72.8418 172.167 71.3418 172.25 69.8418 172.25C68.8418 172.25 68.1751 171.75 67.8418 170.75C67.5085 169.75 67.3418 168.917 67.3418 168.25C67.3418 165.917 68.2585 164.75 70.0918 164.75C74.4251 164.75 78.8418 164.917 83.3418 165.25C87.8418 165.417 92.2585 165.5 96.5918 165.5C105.092 165.5 113.592 165.25 122.092 164.75L181.342 307.25C190.508 283.417 200.092 259.833 210.092 236.5C220.092 213 229.342 189.25 237.842 165.25C242.008 165.417 246.092 165.583 250.092 165.75C254.258 165.75 258.425 165.75 262.592 165.75C267.592 165.75 272.508 165.583 277.342 165.25C282.342 164.75 287.342 164.5 292.342 164.5C293.342 164.5 293.925 165 294.092 166C294.258 167 294.342 167.833 294.342 168.5C294.342 169.167 294.258 170 294.092 171C293.925 172 293.342 172.5 292.342 172.5C290.175 172.5 288.092 172.417 286.092 172.25C284.092 172.083 282.092 172 280.092 172C278.092 172 275.592 172.5 272.592 173.5C269.758 174.333 268.342 176 268.342 178.5V332.25C268.342 336.083 269.425 338.5 271.592 339.5C273.925 340.333 276.842 340.75 280.342 340.75C282.342 340.75 284.342 340.667 286.342 340.5C288.342 340.333 290.425 340.25 292.592 340.25C293.925 340.25 294.675 340.75 294.842 341.75C295.008 342.75 295.092 343.667 295.092 344.5Z" fill="white"/>
<path d="M163.75 198C163.75 188.333 162.667 178.5 160.5 168.5C158.5 158.5 155.167 149.25 150.5 140.75C145.833 132.25 139.583 125.417 131.75 120.25C123.917 114.917 114.25 112.25 102.75 112.25C91.5833 112.25 82.0833 115 74.25 120.5C66.4167 126 60.0833 133.167 55.25 142C50.4167 150.667 46.8333 160.083 44.5 170.25C42.3333 180.25 41.25 189.917 41.25 199.25C41.25 209.083 42.25 219 44.25 229C46.25 238.833 49.5833 247.917 54.25 256.25C58.9167 264.417 65.1667 271 73 276C81 281 90.9167 283.5 102.75 283.5C114.583 283.5 124.417 280.917 132.25 275.75C140.083 270.583 146.25 263.833 150.75 255.5C155.417 247 158.75 237.75 160.75 227.75C162.75 217.75 163.75 207.833 163.75 198ZM191 197.25C191 215.75 187.583 232.083 180.75 246.25C174.083 260.25 164.167 271.167 151 279C138 286.833 121.917 290.75 102.75 290.75C84.0833 290.75 68.0833 287 54.75 279.5C41.5833 271.833 31.5 261.167 24.5 247.5C17.5 233.667 14 217.583 14 199.25C14 186.417 16.0833 174.333 20.25 163C24.4167 151.667 30.4167 141.667 38.25 133C46.0833 124.333 55.4167 117.583 66.25 112.75C77.25 107.75 89.4167 105.25 102.75 105.25C121.417 105.25 137.25 109.167 150.25 117C163.417 124.667 173.5 135.417 180.5 149.25C187.5 162.917 191 178.917 191 197.25Z" fill="white"/>
</svg>
